<svg width="33" height="29" viewBox="0 0 33 29" fill="none" xmlns="http://www.w3.org/2000/svg">
<path d="M30.2083 12.5417H6.98248L14.0912 4.00333C14.4236 3.60341 14.5836 3.08782 14.5358 2.56998C14.4881 2.05215 14.2366 1.57449 13.8366 1.24208C13.4367 0.909679 12.9211 0.749758 12.4033 0.797502C11.8855 0.845245 11.4078 1.09674 11.0754 1.49667L1.28373 13.2467C1.21785 13.3401 1.15894 13.4383 1.10748 13.5404C1.10748 13.6383 1.10748 13.6971 0.970397 13.795C0.881632 14.0195 0.835156 14.2586 0.833313 14.5C0.835156 14.7414 0.881632 14.9805 0.970397 15.205C0.970397 15.3029 0.970396 15.3617 1.10748 15.4596C1.15894 15.5617 1.21785 15.6599 1.28373 15.7533L11.0754 27.5033C11.2595 27.7244 11.4901 27.9022 11.7507 28.024C12.0113 28.1459 12.2956 28.2088 12.5833 28.2083C13.0409 28.2092 13.4843 28.0499 13.8366 27.7579C14.0349 27.5935 14.1989 27.3916 14.319 27.1638C14.4392 26.9359 14.5132 26.6866 14.5368 26.4301C14.5605 26.1736 14.5333 25.915 14.4568 25.669C14.3804 25.423 14.2561 25.1946 14.0912 24.9967L6.98248 16.4583H30.2083C30.7277 16.4583 31.2258 16.252 31.5931 15.8848C31.9603 15.5175 32.1666 15.0194 32.1666 14.5C32.1666 13.9806 31.9603 13.4825 31.5931 13.1152C31.2258 12.748 30.7277 12.5417 30.2083 12.5417Z" fill="black"/>
</svg>
