<svg width="24" height="30" viewBox="0 0 24 30" fill="none" xmlns="http://www.w3.org/2000/svg">
<path d="M15 0H3C2.20435 0 1.44129 0.31607 0.87868 0.87868C0.31607 1.44129 0 2.20435 0 3V27C0 27.7956 0.31607 28.5587 0.87868 29.1213C1.44129 29.6839 2.20435 30 3 30H21C21.7956 30 22.5587 29.6839 23.1213 29.1213C23.6839 28.5587 24 27.7956 24 27V9L15 0ZM8.169 23.118C8.5815 23.118 9.0405 23.0265 9.312 22.92L9.519 23.9895C9.267 24.1155 8.7 24.2505 7.9635 24.2505C5.868 24.2505 4.788 22.947 4.788 21.219C4.7865 19.152 6.2625 18 8.097 18C8.808 18 9.3465 18.144 9.5895 18.27L9.3105 19.359C8.94519 19.2086 8.55354 19.1326 8.1585 19.1355C7.0695 19.1355 6.2235 19.7925 6.2235 21.141C6.225 22.353 6.9465 23.118 8.169 23.118ZM11.9055 24.2505C11.214 24.2505 10.53 24.072 10.188 23.883L10.467 22.749C10.836 22.938 11.403 23.127 11.988 23.127C12.618 23.127 12.951 22.866 12.951 22.47C12.951 22.092 12.663 21.876 11.934 21.615C10.926 21.264 10.2705 20.7075 10.2705 19.8255C10.2705 18.792 11.133 18 12.564 18C13.2465 18 13.7505 18.144 14.1105 18.3045L13.8045 19.4115C13.409 19.2199 12.9749 19.1214 12.5355 19.1235C11.9415 19.1235 11.655 19.395 11.655 19.7085C11.655 20.0955 11.997 20.2665 12.7785 20.5635C13.8495 20.9595 14.3535 21.5175 14.3535 22.371C14.352 23.388 13.569 24.2505 11.9055 24.2505ZM16.7655 24.2505C16.074 24.2505 15.39 24.072 15.048 23.883L15.327 22.749C15.696 22.938 16.263 23.127 16.848 23.127C17.478 23.127 17.811 22.866 17.811 22.47C17.811 22.092 17.523 21.876 16.794 21.615C15.786 21.264 15.1305 20.7075 15.1305 19.8255C15.1305 18.792 15.993 18 17.424 18C18.1065 18 18.6105 18.144 18.9705 18.3045L18.6645 19.4115C18.269 19.2199 17.8349 19.1214 17.3955 19.1235C16.8015 19.1235 16.515 19.395 16.515 19.7085C16.515 20.0955 16.857 20.2665 17.6385 20.5635C18.7095 20.9595 19.2135 21.5175 19.2135 22.371C19.2135 23.388 18.429 24.2505 16.7655 24.2505ZM15 10.5H13.5V3L21 10.5H15Z" fill="white"/>
</svg>
