<svg width="31" height="31" viewBox="0 0 31 31" fill="none" xmlns="http://www.w3.org/2000/svg">
<path d="M27.1667 15.5C27.1667 12.4058 25.9375 9.43835 23.7496 7.25043C21.5617 5.0625 18.5942 3.83334 15.5 3.83334C12.4058 3.83334 9.43835 5.0625 7.25042 7.25043C5.0625 9.43835 3.83333 12.4058 3.83333 15.5C3.83333 18.5942 5.0625 21.5617 7.25042 23.7496C9.43835 25.9375 12.4058 27.1667 15.5 27.1667C18.5942 27.1667 21.5617 25.9375 23.7496 23.7496C25.9375 21.5617 27.1667 18.5942 27.1667 15.5ZM30.0833 15.5C30.0833 19.3677 28.5469 23.0771 25.812 25.812C23.0771 28.5469 19.3677 30.0833 15.5 30.0833C13.5849 30.0833 11.6885 29.7061 9.9192 28.9733C8.14987 28.2404 6.54222 27.1662 5.18803 25.812C2.45312 23.0771 0.916668 19.3677 0.916668 15.5C0.916668 11.6323 2.45312 7.92294 5.18803 5.18803C7.92293 2.45313 11.6323 0.916672 15.5 0.916672C17.4151 0.916672 19.3115 1.29388 21.0808 2.02676C22.8501 2.75964 24.4578 3.83384 25.812 5.18803C27.1662 6.54222 28.2404 8.14987 28.9732 9.91921C29.7061 11.6885 30.0833 13.5849 30.0833 15.5ZM12.5833 11.8542C12.5833 13.0208 11.5625 14.0417 10.3958 14.0417C9.22917 14.0417 8.20834 13.0208 8.20834 11.8542C8.20834 10.6875 9.22917 9.66667 10.3958 9.66667C11.5625 9.66667 12.5833 10.6875 12.5833 11.8542ZM22.7917 11.8542C22.7917 13.0208 21.7708 14.0417 20.6042 14.0417C19.4375 14.0417 18.4167 13.0208 18.4167 11.8542C18.4167 10.6875 19.4375 9.66667 20.6042 9.66667C21.7708 9.66667 22.7917 10.6875 22.7917 11.8542ZM15.5 23.1271C12.9479 23.1271 10.7021 22.0625 9.38959 20.4875L11.4604 18.4167C12.1167 19.4667 13.6771 20.2104 15.5 20.2104C17.3229 20.2104 18.8833 19.4667 19.5396 18.4167L21.6104 20.4875C20.2979 22.0625 18.0521 23.1271 15.5 23.1271Z" fill="white"/>
</svg>
