<svg width="25" height="31" viewBox="0 0 25 31" fill="none" xmlns="http://www.w3.org/2000/svg">
<path d="M10.6625 15.0917C11.3479 16.8854 11.275 18.7521 9.21874 19.4958C4.98957 21.0562 4.04166 16.9583 3.98332 16.7542L10.6625 15.0917ZM3.32707 13.9104L9.62707 12.35C9.34999 10.8187 9.77291 9.2875 9.77291 7.47916C9.77291 5.02916 7.83332 0.231248 4.74166 1.00416C1.21249 1.87916 0.702074 5.80208 0.833324 7.69791C1.00832 9.59375 3.22499 13.6479 3.32707 13.9104ZM21.0312 26.9479C20.9875 27.1667 20.025 31.25 15.7958 29.7042C13.7542 28.9458 13.6667 27.0792 14.3521 25.2854L21.0312 26.9479ZM24.1667 17.9062C24.3125 16.0104 23.8167 12.0729 20.2729 11.1979C17.1958 10.3958 15.2562 15.2229 15.2562 17.6875C15.2562 19.4812 15.6646 21.0125 15.4167 22.5437L21.6875 24.1042C21.8042 23.8417 24.0062 19.7875 24.1667 17.9062Z" fill="white"/>
</svg>
