<svg width="28" height="25" viewBox="0 0 28 25" fill="none" xmlns="http://www.w3.org/2000/svg">
<path d="M13.7875 8.25L17.75 12.2V12C17.75 11.0054 17.3549 10.0516 16.6517 9.34835C15.9484 8.64509 14.9946 8.25 14 8.25H13.7875ZM8.4125 9.25L10.35 11.1875C10.2875 11.45 10.25 11.7125 10.25 12C10.25 12.9946 10.6451 13.9484 11.3483 14.6517C12.0516 15.3549 13.0054 15.75 14 15.75C14.275 15.75 14.55 15.7125 14.8125 15.65L16.75 17.5875C15.9125 18 14.9875 18.25 14 18.25C12.3424 18.25 10.7527 17.5915 9.58058 16.4194C8.40848 15.2473 7.75 13.6576 7.75 12C7.75 11.0125 8 10.0875 8.4125 9.25V9.25ZM1.5 2.3375L4.35 5.1875L4.9125 5.75C2.85 7.375 1.225 9.5 0.25 12C2.4125 17.4875 7.75 21.375 14 21.375C15.9375 21.375 17.7875 21 19.475 20.325L20.0125 20.85L23.6625 24.5L25.25 22.9125L3.0875 0.75L1.5 2.3375ZM14 5.75C15.6576 5.75 17.2473 6.40848 18.4194 7.58058C19.5915 8.75269 20.25 10.3424 20.25 12C20.25 12.8 20.0875 13.575 19.8 14.275L23.4625 17.9375C25.3375 16.375 26.8375 14.325 27.75 12C25.5875 6.5125 20.25 2.625 14 2.625C12.25 2.625 10.575 2.9375 9 3.5L11.7125 6.1875C12.425 5.9125 13.1875 5.75 14 5.75Z" fill="black"/>
</svg>
