<svg width="36" height="33" viewBox="0 0 36 33" fill="none" xmlns="http://www.w3.org/2000/svg">
<path d="M2.66656 6.66666L9.66656 11.3333L16.6432 1.56666C16.7974 1.35061 17.0009 1.1745 17.2369 1.053C17.4729 0.931493 17.7345 0.868103 17.9999 0.868103C18.2653 0.868103 18.5269 0.931493 18.7629 1.053C18.9988 1.1745 19.2024 1.35061 19.3566 1.56666L26.3332 11.3333L33.3332 6.66666C33.5981 6.49041 33.908 6.39367 34.2261 6.38789C34.5443 6.38211 34.8574 6.46752 35.1286 6.63403C35.3997 6.80054 35.6176 7.0412 35.7563 7.32755C35.8951 7.61391 35.9489 7.934 35.9116 8.25L33.1732 31.5283C33.1255 31.9337 32.9306 32.3075 32.6255 32.5788C32.3204 32.8501 31.9264 32.9999 31.5182 33H4.48156C4.07333 32.9999 3.67933 32.8501 3.37427 32.5788C3.06921 32.3075 2.87432 31.9337 2.82656 31.5283L0.0882237 8.24833C0.0512237 7.93247 0.105366 7.61261 0.244258 7.32652C0.383151 7.04043 0.600995 6.80006 0.872075 6.63376C1.14316 6.46747 1.45615 6.3822 1.77412 6.38803C2.09209 6.39386 2.40175 6.49054 2.66656 6.66666ZM17.9999 23C18.8839 23 19.7318 22.6488 20.3569 22.0237C20.982 21.3986 21.3332 20.5507 21.3332 19.6667C21.3332 18.7826 20.982 17.9348 20.3569 17.3096C19.7318 16.6845 18.8839 16.3333 17.9999 16.3333C17.1158 16.3333 16.268 16.6845 15.6429 17.3096C15.0177 17.9348 14.6666 18.7826 14.6666 19.6667C14.6666 20.5507 15.0177 21.3986 15.6429 22.0237C16.268 22.6488 17.1158 23 17.9999 23Z" fill="#FFD12C"/>
</svg>
