<svg width="36" height="33" viewBox="0 0 36 33" fill="none" xmlns="http://www.w3.org/2000/svg">
<path d="M3.81989 11.4417L5.96322 29.6667H30.0366L32.1799 11.4417L25.4966 15.8967L17.9999 5.40167L10.5032 15.8967L3.81989 11.4417ZM2.66822 6.66667L9.66656 11.3333L16.6432 1.56667C16.7974 1.35061 17.0009 1.17451 17.2369 1.053C17.4729 0.931497 17.7345 0.868107 17.9999 0.868107C18.2653 0.868107 18.5269 0.931497 18.7629 1.053C18.9988 1.17451 19.2024 1.35061 19.3566 1.56667L26.3332 11.3333L33.3332 6.66667C33.5981 6.49041 33.908 6.39367 34.2261 6.38789C34.5443 6.38211 34.8574 6.46752 35.1286 6.63403C35.3997 6.80055 35.6176 7.0412 35.7563 7.32756C35.8951 7.61391 35.9489 7.934 35.9116 8.25L33.1732 31.5283C33.1255 31.9338 32.9306 32.3075 32.6255 32.5788C32.3204 32.8501 31.9264 32.9999 31.5182 33H4.48156C4.07333 32.9999 3.67933 32.8501 3.37427 32.5788C3.06921 32.3075 2.87432 31.9338 2.82656 31.5283L0.0882237 8.24833C0.0512237 7.93247 0.105366 7.61262 0.244258 7.32653C0.383151 7.04044 0.600995 6.80006 0.872075 6.63377C1.14316 6.46747 1.45615 6.38221 1.77412 6.38804C2.09209 6.39387 2.40175 6.49055 2.66656 6.66667H2.66822ZM17.9999 23C17.1158 23 16.268 22.6488 15.6429 22.0237C15.0177 21.3986 14.6666 20.5507 14.6666 19.6667C14.6666 18.7826 15.0177 17.9348 15.6429 17.3096C16.268 16.6845 17.1158 16.3333 17.9999 16.3333C18.8839 16.3333 19.7318 16.6845 20.3569 17.3096C20.982 17.9348 21.3332 18.7826 21.3332 19.6667C21.3332 20.5507 20.982 21.3986 20.3569 22.0237C19.7318 22.6488 18.8839 23 17.9999 23Z" fill="#FFD12C"/>
</svg>
