<svg width="41" height="41" viewBox="0 0 41 41" fill="none" xmlns="http://www.w3.org/2000/svg">
<path d="M18.5417 14.625H22.4584V10.7083H18.5417V14.625ZM20.5 36.1667C11.8638 36.1667 4.83335 29.1362 4.83335 20.5C4.83335 11.8637 11.8638 4.83332 20.5 4.83332C29.1363 4.83332 36.1667 11.8637 36.1667 20.5C36.1667 29.1362 29.1363 36.1667 20.5 36.1667ZM20.5 0.916656C17.9283 0.916656 15.3818 1.42319 13.0058 2.40735C10.6298 3.3915 8.47099 4.834 6.65251 6.65248C2.97993 10.3251 0.916687 15.3062 0.916687 20.5C0.916687 25.6938 2.97993 30.6749 6.65251 34.3475C8.47099 36.166 10.6298 37.6085 13.0058 38.5926C15.3818 39.5768 17.9283 40.0833 20.5 40.0833C25.6938 40.0833 30.6749 38.0201 34.3475 34.3475C38.0201 30.6749 40.0834 25.6938 40.0834 20.5C40.0834 17.9283 39.5768 15.3817 38.5927 13.0058C37.6085 10.6298 36.166 8.47096 34.3475 6.65248C32.529 4.834 30.3702 3.3915 27.9942 2.40735C25.6183 1.42319 23.0717 0.916656 20.5 0.916656ZM18.5417 30.2917H22.4584V18.5417H18.5417V30.2917Z" fill="black"/>
</svg>
