<svg width="32" height="32" viewBox="0 0 32 32" fill="none" xmlns="http://www.w3.org/2000/svg">
<path fill-rule="evenodd" clip-rule="evenodd" d="M22.954 25.78C20.6427 27.4229 17.8243 28.1942 14.9985 27.9571C12.1727 27.72 9.52221 26.4899 7.51695 24.4849C5.51169 22.4799 4.28126 19.8295 4.04385 17.0038C3.80644 14.178 4.5774 11.3595 6.22 9.048L22.954 25.784V25.78ZM25.782 22.952L9.048 6.22C11.3594 4.57602 14.1785 3.80394 17.005 4.04074C19.8315 4.27754 22.4828 5.50791 24.4884 7.51357C26.4941 9.51922 27.7245 12.1705 27.9613 14.997C28.1981 17.8235 27.426 20.6426 25.782 22.954V22.952ZM32 16C32 20.2435 30.3143 24.3131 27.3137 27.3137C24.3131 30.3143 20.2435 32 16 32C11.7565 32 7.68687 30.3143 4.68629 27.3137C1.68571 24.3131 0 20.2435 0 16C0 11.7565 1.68571 7.68687 4.68629 4.68629C7.68687 1.68571 11.7565 0 16 0C20.2435 0 24.3131 1.68571 27.3137 4.68629C30.3143 7.68687 32 11.7565 32 16Z" fill="#E54C4C"/>
</svg>
