<svg width="28" height="28" viewBox="0 0 28 28" fill="none" xmlns="http://www.w3.org/2000/svg">
<path d="M10.25 0.25H2.75C2.08696 0.25 1.45107 0.513392 0.982233 0.982233C0.513392 1.45107 0.25 2.08696 0.25 2.75V19C0.25 19.663 0.513392 20.2989 0.982233 20.7678C1.45107 21.2366 2.08696 21.5 2.75 21.5H10.25C10.913 21.5 11.5489 21.2366 12.0178 20.7678C12.4866 20.2989 12.75 19.663 12.75 19V2.75C12.75 2.08696 12.4866 1.45107 12.0178 0.982233C11.5489 0.513392 10.913 0.25 10.25 0.25ZM10.25 17.75H2.75V2.75H10.25V17.75ZM25.25 15.25H15.25V17.75H25.25V25.25H10.25V24H6.5V25.25C6.5 25.913 6.76339 26.5489 7.23223 27.0178C7.70107 27.4866 8.33696 27.75 9 27.75H25.25C25.913 27.75 26.5489 27.4866 27.0178 27.0178C27.4866 26.5489 27.75 25.913 27.75 25.25V17.75C27.75 17.087 27.4866 16.4511 27.0178 15.9822C26.5489 15.5134 25.913 15.25 25.25 15.25ZM27.75 11.5L22.75 9L25.1375 7.8625C24.4197 6.16407 23.2179 4.71442 21.682 3.69417C20.1461 2.67393 18.3439 2.12821 16.5 2.125V0.25C19.4837 0.25 22.3452 1.43526 24.455 3.54505C26.5647 5.65483 27.75 8.51631 27.75 11.5V11.5Z" fill="black"/>
</svg>
