<svg width="29" height="27" viewBox="0 0 29 27" fill="none" xmlns="http://www.w3.org/2000/svg">
<path d="M28.625 0.375V18.6042C28.625 19.9579 28.0872 21.2561 27.13 22.2134C26.1728 23.1706 24.8745 23.7083 23.5208 23.7083C22.1671 23.7083 20.8689 23.1706 19.9116 22.2134C18.9544 21.2561 18.4167 19.9579 18.4167 18.6042C18.4167 17.2505 18.9544 15.9522 19.9116 14.995C20.8689 14.0378 22.1671 13.5 23.5208 13.5C24.3083 13.5 25.0521 13.675 25.7083 13.9958V5.43542L11.125 8.54167V21.5208C11.125 22.8745 10.5872 24.1728 9.63003 25.13C8.67281 26.0872 7.37454 26.625 6.02083 26.625C4.66713 26.625 3.36886 26.0872 2.41164 25.13C1.45443 24.1728 0.916668 22.8745 0.916668 21.5208C0.916668 20.1671 1.45443 18.8689 2.41164 17.9116C3.36886 16.9544 4.66713 16.4167 6.02083 16.4167C6.80833 16.4167 7.55208 16.5917 8.20833 16.9125V4.75L28.625 0.375Z" fill="white"/>
</svg>
