<svg width="34" height="32" viewBox="0 0 34 32" fill="none" xmlns="http://www.w3.org/2000/svg">
<path d="M31.6375 24.0387C32.8725 23.5837 33.75 22.3812 33.75 21V8C33.75 6.2125 32.2875 4.75 30.5 4.75H12.3488L31.6375 24.0387ZM26.4375 9.625C27.7863 9.625 28.875 10.7137 28.875 12.0625C28.875 13.4113 27.7863 14.5 26.4375 14.5C25.0888 14.5 24 13.4113 24 12.0625C24 10.7137 25.0888 9.625 26.4375 9.625ZM31.2963 28.2962L3.70377 0.703751C3.39993 0.399912 2.98784 0.229218 2.55815 0.229218C2.12845 0.229218 1.71636 0.399912 1.41252 0.703751C1.10868 1.00759 0.937988 1.41968 0.937988 1.84938C0.937988 2.27907 1.10868 2.69116 1.41252 2.995L3.36252 4.945C2.12752 5.41625 1.25002 6.61875 1.25002 8V21C1.25002 22.7875 2.71252 24.25 4.50002 24.25H22.6513L28.9888 30.5875C29.6225 31.2212 30.6463 31.2212 31.28 30.5875C31.93 29.9537 31.93 28.93 31.2963 28.2962ZM14.25 16.125H12.625V17.75C12.625 18.6437 11.8938 19.375 11 19.375C10.1063 19.375 9.37502 18.6437 9.37502 17.75V16.125H7.75002C6.85627 16.125 6.12502 15.3938 6.12502 14.5C6.12502 13.6062 6.85627 12.875 7.75002 12.875H9.37502V11.25C9.37502 11.1687 9.39127 11.0712 9.39127 10.99L14.4938 16.0925C14.414 16.1124 14.3322 16.1233 14.25 16.125Z" fill="#A6A6A6"/>
</svg>
