<svg width="39" height="21" viewBox="0 0 39 21" fill="none" xmlns="http://www.w3.org/2000/svg">
<path d="M34.8749 0.25H4.12492C2.24575 0.25 0.708252 1.7875 0.708252 3.66667V17.3333C0.708252 19.2125 2.24575 20.75 4.12492 20.75H34.8749C36.7541 20.75 38.2916 19.2125 38.2916 17.3333V3.66667C38.2916 1.7875 36.7541 0.25 34.8749 0.25ZM17.7916 12.2083H12.6666V17.3333H9.24992V12.2083H4.12492V8.79167H9.24992V3.66667H12.6666V8.79167H17.7916V12.2083ZM25.4791 15.625C24.0612 15.625 22.9166 14.4804 22.9166 13.0625C22.9166 11.6446 24.0612 10.5 25.4791 10.5C26.897 10.5 28.0416 11.6446 28.0416 13.0625C28.0416 14.4804 26.897 15.625 25.4791 15.625ZM32.3124 10.5C30.8945 10.5 29.7499 9.35542 29.7499 7.9375C29.7499 6.51958 30.8945 5.375 32.3124 5.375C33.7303 5.375 34.8749 6.51958 34.8749 7.9375C34.8749 9.35542 33.7303 10.5 32.3124 10.5Z" fill="#4FD84C"/>
</svg>
