<svg width="30" height="30" viewBox="0 0 30 30" fill="none" xmlns="http://www.w3.org/2000/svg">
<path d="M10.9091 0H2.72727C2.00396 0 1.31026 0.287337 0.7988 0.7988C0.287337 1.31026 0 2.00396 0 2.72727V20.4545C0 21.1779 0.287337 21.8716 0.7988 22.383C1.31026 22.8945 2.00396 23.1818 2.72727 23.1818H4.09091V19.0909H2.72727V2.72727H10.9091V13.6364H13.6364V2.72727C13.6364 2.00396 13.349 1.31026 12.8376 0.7988C12.3261 0.287337 11.6324 0 10.9091 0ZM30 27.2727V19.0909C30 18.3676 29.7127 17.6739 29.2012 17.1624C28.6897 16.651 27.996 16.3636 27.2727 16.3636H9.54545C8.82214 16.3636 8.12844 16.651 7.61698 17.1624C7.10552 17.6739 6.81818 18.3676 6.81818 19.0909V27.2727C6.81818 27.996 7.10552 28.6897 7.61698 29.2012C8.12844 29.7127 8.82214 30 9.54545 30H27.2727C27.996 30 28.6897 29.7127 29.2012 29.2012C29.7127 28.6897 30 27.996 30 27.2727ZM10.9091 27.2727V19.0909H27.2727V27.2727H10.9091ZM30 12.2727H27.9545C27.9545 8.18182 25.4864 4.45909 21.7091 2.85L20.4545 5.45455L17.7273 0C20.9822 0 24.1038 1.29302 26.4054 3.5946C28.707 5.89618 30 9.0178 30 12.2727Z" fill="black"/>
</svg>
