<svg width="37" height="39" viewBox="0 0 37 39" fill="none" xmlns="http://www.w3.org/2000/svg">
<path d="M18.5236 0.40625C19.961 0.421917 21.3925 0.588375 22.7966 0.901708C23.0954 0.968389 23.3658 1.12673 23.5701 1.35459C23.7745 1.58246 23.9025 1.86847 23.9364 2.17267L24.2693 5.16304C24.3163 5.58464 24.4616 5.98932 24.6936 6.34452C24.9255 6.69971 25.2375 6.99551 25.6046 7.20811C25.9717 7.42071 26.3836 7.54417 26.8071 7.56856C27.2306 7.59295 27.6539 7.51759 28.043 7.34854L30.7866 6.14417C31.0652 6.02148 31.375 5.98837 31.6732 6.04941C31.9714 6.11045 32.2433 6.26264 32.4512 6.48492C34.4329 8.60205 35.9087 11.1411 36.7674 13.9109C36.8574 14.202 36.8547 14.5139 36.7596 14.8033C36.6646 15.0928 36.4818 15.3456 36.2367 15.5265L33.8044 17.3204C33.4624 17.5716 33.1843 17.8998 32.9926 18.2785C32.8009 18.6571 32.701 19.0756 32.701 19.5C32.701 19.9244 32.8009 20.3429 32.9926 20.7215C33.1843 21.1002 33.4624 21.4284 33.8044 21.6796L36.2386 23.4715C36.4845 23.6524 36.6679 23.9053 36.7633 24.1952C36.8588 24.4851 36.8616 24.7975 36.7713 25.0891C35.9123 27.8588 34.4366 30.3977 32.4551 32.5151C32.2477 32.7369 31.9767 32.8889 31.6793 32.9503C31.3819 33.0117 31.0727 32.9793 30.7945 32.8578L28.0391 31.6495C27.6505 31.4791 27.2273 31.4026 26.8037 31.4262C26.3801 31.4498 25.968 31.5727 25.6008 31.7852C25.2335 31.9976 24.9214 32.2935 24.6898 32.6489C24.4581 33.0043 24.3134 33.4093 24.2673 33.8311L23.9364 36.8195C23.903 37.1204 23.7775 37.4036 23.577 37.6304C23.3765 37.8572 23.1108 38.0165 22.8162 38.0865C19.9797 38.7614 17.0244 38.7614 14.1878 38.0865C13.8933 38.0165 13.6276 37.8572 13.4271 37.6304C13.2265 37.4036 13.101 37.1204 13.0676 36.8195L12.7386 33.835C12.6907 33.4143 12.5447 33.0107 12.3123 32.6567C12.08 32.3027 11.7679 32.0082 11.4011 31.7968C11.0342 31.5853 10.6229 31.4629 10.2001 31.4394C9.77733 31.4159 9.35494 31.4918 8.96689 31.6612L6.21347 32.8676C5.93496 32.9896 5.62544 33.0221 5.32763 32.9608C5.02983 32.8994 4.75841 32.7471 4.55085 32.5249C2.56844 30.4052 1.09269 27.8635 0.234681 25.091C0.144395 24.7995 0.147175 24.4871 0.242637 24.1972C0.338099 23.9073 0.521498 23.6543 0.767347 23.4735L3.20156 21.6796C3.54396 21.4286 3.82242 21.1005 4.01436 20.7218C4.2063 20.3431 4.30633 19.9245 4.30633 19.5C4.30633 19.0754 4.2063 18.6569 4.01436 18.2782C3.82242 17.8995 3.54396 17.5714 3.20156 17.3204L0.767347 15.5305C0.521846 15.3493 0.338835 15.0963 0.24373 14.8064C0.148625 14.5165 0.146147 14.2042 0.236639 13.9129C1.09542 11.1431 2.57114 8.60405 4.55281 6.48687C4.76075 6.26459 5.03262 6.11241 5.33082 6.05137C5.62902 5.99032 5.93883 6.02344 6.21739 6.14612L8.95905 7.3505C9.3488 7.51945 9.77274 7.59463 10.1968 7.57C10.6209 7.54538 11.0333 7.42163 11.4008 7.20871C11.7684 6.99578 12.0809 6.69961 12.3133 6.344C12.5456 5.98838 12.6913 5.58322 12.7386 5.16108L13.0716 2.17267C13.1052 1.86786 13.2333 1.58122 13.4381 1.35294C13.6428 1.12465 13.9139 0.966185 14.2133 0.89975C15.6174 0.588375 17.0528 0.423875 18.5236 0.40625ZM18.5236 3.34375C17.6352 3.35418 16.7489 3.43077 15.872 3.57287L15.6585 5.48617C15.5607 6.36656 15.2574 7.21165 14.773 7.95325C14.2885 8.69486 13.6366 9.31221 12.8697 9.7555C12.1028 10.1988 11.2424 10.4556 10.358 10.5053C9.47357 10.5549 8.58987 10.3959 7.77818 10.0412L6.0196 9.26967C4.89941 10.629 4.00782 12.1615 3.37976 13.8071L4.94251 14.9567C5.65577 15.4808 6.23568 16.1655 6.63538 16.9553C7.03508 17.745 7.24335 18.6178 7.24335 19.5029C7.24335 20.3881 7.03508 21.2608 6.63538 22.0506C6.23568 22.8404 5.65577 23.525 4.94251 24.0492L3.37781 25.2007C4.00447 26.8496 4.89747 28.385 6.01764 29.748L7.78993 28.9705C8.59968 28.617 9.48113 28.4585 10.3633 28.5078C11.2455 28.5571 12.1038 28.8129 12.8691 29.2545C13.6344 29.6961 14.2853 30.3112 14.7695 31.0503C15.2536 31.7895 15.5575 32.6319 15.6566 33.5099L15.872 35.4369C17.6129 35.7307 19.3931 35.7307 21.134 35.4369L21.3494 33.5099C21.4469 32.6308 21.7497 31.7869 22.2334 31.0464C22.7172 30.3058 23.3682 29.6894 24.134 29.2468C24.8998 28.8043 25.759 28.548 26.6421 28.4986C27.5253 28.4492 28.4076 28.6082 29.218 28.9627L30.9903 29.7382C32.1099 28.378 33.0008 26.8449 33.6282 25.1987L32.0654 24.0472C31.3522 23.5231 30.7723 22.8384 30.3726 22.0486C29.9729 21.2589 29.7646 20.3861 29.7646 19.501C29.7646 18.6158 29.9729 17.7431 30.3726 16.9533C30.7723 16.1635 31.3522 15.4789 32.0654 14.9547L33.6243 13.8052C32.9962 12.1595 32.1046 10.627 30.9844 9.26771L29.2298 10.0373C28.4185 10.3925 27.5351 10.5519 26.6509 10.5027C25.7667 10.4534 24.9065 10.197 24.1397 9.75403C23.3729 9.31105 22.721 8.69397 22.2366 7.9526C21.7522 7.21122 21.449 6.36634 21.3514 5.48617L21.136 3.57483C20.2727 3.4337 19.4002 3.35711 18.5255 3.34571L18.5236 3.34375ZM18.5001 12.1562C20.4477 12.1562 22.3157 12.93 23.6929 14.3072C25.0701 15.6844 25.8438 17.5523 25.8438 19.5C25.8438 21.4477 25.0701 23.3156 23.6929 24.6928C22.3157 26.07 20.4477 26.8437 18.5001 26.8437C16.5524 26.8437 14.6845 26.07 13.3072 24.6928C11.93 23.3156 11.1563 21.4477 11.1563 19.5C11.1563 17.5523 11.93 15.6844 13.3072 14.3072C14.6845 12.93 16.5524 12.1562 18.5001 12.1562ZM18.5001 15.0937C17.3314 15.0937 16.2107 15.558 15.3844 16.3843C14.558 17.2106 14.0938 18.3314 14.0938 19.5C14.0938 20.6686 14.558 21.7894 15.3844 22.6157C16.2107 23.442 17.3314 23.9062 18.5001 23.9062C19.6687 23.9062 20.7894 23.442 21.6157 22.6157C22.4421 21.7894 22.9063 20.6686 22.9063 19.5C22.9063 18.3314 22.4421 17.2106 21.6157 16.3843C20.7894 15.558 19.6687 15.0937 18.5001 15.0937Z" fill="black"/>
</svg>
