<svg width="28" height="20" viewBox="0 0 28 20" fill="none" xmlns="http://www.w3.org/2000/svg">
<path d="M14 6.25C13.0054 6.25 12.0516 6.64509 11.3483 7.34835C10.6451 8.05161 10.25 9.00544 10.25 10C10.25 10.9946 10.6451 11.9484 11.3483 12.6517C12.0516 13.3549 13.0054 13.75 14 13.75C14.9946 13.75 15.9484 13.3549 16.6517 12.6517C17.3549 11.9484 17.75 10.9946 17.75 10C17.75 9.00544 17.3549 8.05161 16.6517 7.34835C15.9484 6.64509 14.9946 6.25 14 6.25ZM14 16.25C12.3424 16.25 10.7527 15.5915 9.58058 14.4194C8.40848 13.2473 7.75 11.6576 7.75 10C7.75 8.3424 8.40848 6.75269 9.58058 5.58058C10.7527 4.40848 12.3424 3.75 14 3.75C15.6576 3.75 17.2473 4.40848 18.4194 5.58058C19.5915 6.75269 20.25 8.3424 20.25 10C20.25 11.6576 19.5915 13.2473 18.4194 14.4194C17.2473 15.5915 15.6576 16.25 14 16.25ZM14 0.625C7.75 0.625 2.4125 4.5125 0.25 10C2.4125 15.4875 7.75 19.375 14 19.375C20.25 19.375 25.5875 15.4875 27.75 10C25.5875 4.5125 20.25 0.625 14 0.625Z" fill="black"/>
</svg>
