<svg width="35" height="35" viewBox="0 0 35 35" fill="none" xmlns="http://www.w3.org/2000/svg">
<path d="M24.9484 20.9167C25.0851 19.7892 25.1876 18.6617 25.1876 17.5C25.1876 16.3383 25.0851 15.2108 24.9484 14.0833H30.7226C30.9959 15.1767 31.1667 16.3213 31.1667 17.5C31.1667 18.6788 30.9959 19.8233 30.7226 20.9167H24.9484ZM21.9247 30.415C22.9497 28.5188 23.7355 26.4688 24.2822 24.3333H29.3217C27.6667 27.1833 25.0409 29.3422 21.9247 30.415ZM21.4976 20.9167H13.5026C13.3317 19.7892 13.2292 18.6617 13.2292 17.5C13.2292 16.3383 13.3317 15.1938 13.5026 14.0833H21.4976C21.6513 15.1938 21.7709 16.3383 21.7709 17.5C21.7709 18.6617 21.6513 19.7892 21.4976 20.9167ZM17.5001 31.0983C16.0822 29.0483 14.9376 26.7763 14.2372 24.3333H20.763C20.0626 26.7763 18.918 29.0483 17.5001 31.0983ZM10.6667 10.6667H5.67841C7.31646 7.80899 9.94036 5.64671 13.0584 4.585C12.0334 6.48125 11.2647 8.53125 10.6667 10.6667ZM5.67841 24.3333H10.6667C11.2647 26.4688 12.0334 28.5188 13.0584 30.415C9.9469 29.3416 7.32669 27.1824 5.67841 24.3333ZM4.27758 20.9167C4.00425 19.8233 3.83341 18.6788 3.83341 17.5C3.83341 16.3213 4.00425 15.1767 4.27758 14.0833H10.0517C9.91508 15.2108 9.81258 16.3383 9.81258 17.5C9.81258 18.6617 9.91508 19.7892 10.0517 20.9167H4.27758ZM17.5001 3.88459C18.918 5.93459 20.0626 8.22375 20.763 10.6667H14.2372C14.9376 8.22375 16.0822 5.93459 17.5001 3.88459ZM29.3217 10.6667H24.2822C23.7475 8.55083 22.9558 6.50841 21.9247 4.585C25.068 5.66125 27.6817 7.83083 29.3217 10.6667ZM17.5001 0.416668C8.053 0.416668 0.416748 8.10417 0.416748 17.5C0.416748 22.0308 2.21659 26.376 5.42034 29.5797C7.00667 31.1661 8.88993 32.4244 10.9626 33.2829C13.0352 34.1415 15.2567 34.5833 17.5001 34.5833C22.0309 34.5833 26.3761 32.7835 29.5798 29.5797C32.7836 26.376 34.5834 22.0308 34.5834 17.5C34.5834 15.2566 34.1415 13.0351 33.283 10.9625C32.4245 8.88985 31.1662 7.00659 29.5798 5.42026C27.9935 3.83393 26.1102 2.57558 24.0376 1.71706C21.9649 0.858542 19.7435 0.416668 17.5001 0.416668Z" fill="#9F9F9F"/>
</svg>
